<?xml version="1.0" encoding="UTF-8"?>
<svg xmlns="http://www.w3.org/2000/svg" version="1.1" width="300" height="300" viewBox="0 0 300 300"><rect x="0" y="0" width="300" height="300" fill="#ffffff"/><g transform="scale(5.263)"><g transform="translate(4,4)"><path fill-rule="evenodd" d="M9 0L9 1L8 1L8 2L9 2L9 1L10 1L10 3L11 3L11 4L9 4L9 3L8 3L8 4L9 4L9 5L8 5L8 7L9 7L9 6L10 6L10 8L11 8L11 6L12 6L12 7L13 7L13 8L12 8L12 9L11 9L11 10L10 10L10 9L9 9L9 8L6 8L6 9L8 9L8 13L7 13L7 12L6 12L6 13L7 13L7 14L5 14L5 15L4 15L4 14L2 14L2 13L3 13L3 12L5 12L5 11L7 11L7 10L5 10L5 8L0 8L0 10L1 10L1 9L4 9L4 10L2 10L2 11L1 11L1 12L2 12L2 13L0 13L0 15L1 15L1 16L0 16L0 17L2 17L2 18L0 18L0 19L1 19L1 20L0 20L0 22L1 22L1 20L2 20L2 21L3 21L3 23L2 23L2 25L1 25L1 26L2 26L2 25L3 25L3 26L4 26L4 27L5 27L5 28L4 28L4 29L3 29L3 27L1 27L1 28L2 28L2 29L0 29L0 30L2 30L2 31L1 31L1 32L3 32L3 33L4 33L4 32L6 32L6 33L5 33L5 34L4 34L4 35L3 35L3 34L2 34L2 33L0 33L0 35L1 35L1 36L2 36L2 37L0 37L0 38L1 38L1 40L0 40L0 41L3 41L3 40L4 40L4 39L2 39L2 37L4 37L4 38L5 38L5 39L8 39L8 40L6 40L6 41L8 41L8 43L9 43L9 42L11 42L11 41L12 41L12 45L9 45L9 44L8 44L8 49L10 49L10 48L11 48L11 49L12 49L12 47L11 47L11 46L12 46L12 45L13 45L13 47L14 47L14 45L13 45L13 44L14 44L14 43L13 43L13 42L16 42L16 41L17 41L17 43L15 43L15 44L16 44L16 45L15 45L15 46L16 46L16 47L17 47L17 48L16 48L16 49L17 49L17 48L18 48L18 49L22 49L22 48L21 48L21 47L20 47L20 48L18 48L18 47L19 47L19 46L18 46L18 45L22 45L22 46L24 46L24 49L28 49L28 48L29 48L29 49L31 49L31 47L30 47L30 46L32 46L32 45L31 45L31 44L34 44L34 42L33 42L33 43L30 43L30 42L31 42L31 41L32 41L32 40L31 40L31 39L30 39L30 38L31 38L31 36L33 36L33 38L32 38L32 39L33 39L33 40L34 40L34 41L35 41L35 43L36 43L36 44L35 44L35 46L34 46L34 45L33 45L33 46L34 46L34 47L32 47L32 48L34 48L34 47L35 47L35 48L36 48L36 49L38 49L38 48L36 48L36 47L38 47L38 45L40 45L40 46L39 46L39 49L40 49L40 46L41 46L41 47L42 47L42 48L41 48L41 49L42 49L42 48L43 48L43 46L45 46L45 44L46 44L46 45L47 45L47 46L48 46L48 45L47 45L47 44L46 44L46 43L45 43L45 42L46 42L46 41L47 41L47 42L48 42L48 44L49 44L49 42L48 42L48 41L49 41L49 40L46 40L46 37L47 37L47 38L48 38L48 39L49 39L49 38L48 38L48 37L49 37L49 34L48 34L48 33L49 33L49 30L48 30L48 29L47 29L47 28L49 28L49 26L48 26L48 25L49 25L49 22L48 22L48 21L49 21L49 18L48 18L48 17L49 17L49 14L48 14L48 13L49 13L49 10L48 10L48 8L47 8L47 10L46 10L46 8L45 8L45 10L44 10L44 8L43 8L43 9L42 9L42 8L41 8L41 6L40 6L40 7L39 7L39 5L38 5L38 7L37 7L37 4L38 4L38 3L36 3L36 4L35 4L35 2L34 2L34 1L33 1L33 2L30 2L30 1L32 1L32 0L30 0L30 1L29 1L29 2L28 2L28 0L27 0L27 1L24 1L24 2L23 2L23 1L22 1L22 0L21 0L21 1L20 1L20 0L18 0L18 1L19 1L19 2L17 2L17 3L18 3L18 4L17 4L17 6L16 6L16 7L15 7L15 6L14 6L14 7L13 7L13 6L12 6L12 2L14 2L14 3L13 3L13 4L15 4L15 5L16 5L16 4L15 4L15 3L16 3L16 0L13 0L13 1L11 1L11 0ZM36 0L36 2L39 2L39 4L40 4L40 3L41 3L41 0L40 0L40 1L37 1L37 0ZM21 1L21 3L22 3L22 4L24 4L24 3L25 3L25 4L27 4L27 3L28 3L28 5L30 5L30 6L29 6L29 8L28 8L28 6L27 6L27 8L28 8L28 9L29 9L29 10L28 10L28 11L26 11L26 13L25 13L25 14L27 14L27 12L28 12L28 14L30 14L30 15L31 15L31 14L32 14L32 15L34 15L34 16L31 16L31 18L30 18L30 17L29 17L29 16L28 16L28 15L26 15L26 17L24 17L24 16L25 16L25 15L24 15L24 12L25 12L25 10L27 10L27 9L25 9L25 10L24 10L24 9L22 9L22 6L21 6L21 4L18 4L18 5L19 5L19 9L18 9L18 8L17 8L17 7L18 7L18 6L17 6L17 7L16 7L16 8L13 8L13 9L12 9L12 10L11 10L11 11L10 11L10 10L9 10L9 11L10 11L10 12L9 12L9 13L10 13L10 12L11 12L11 13L12 13L12 14L11 14L11 15L10 15L10 14L9 14L9 15L6 15L6 16L5 16L5 18L3 18L3 19L2 19L2 20L3 20L3 21L4 21L4 22L5 22L5 21L4 21L4 19L5 19L5 18L7 18L7 19L6 19L6 20L7 20L7 21L6 21L6 22L7 22L7 21L8 21L8 20L9 20L9 22L11 22L11 23L10 23L10 24L11 24L11 25L9 25L9 27L6 27L6 28L5 28L5 29L4 29L4 30L3 30L3 29L2 29L2 30L3 30L3 32L4 32L4 30L5 30L5 31L6 31L6 32L7 32L7 31L6 31L6 30L7 30L7 29L8 29L8 28L9 28L9 30L8 30L8 31L9 31L9 30L10 30L10 31L11 31L11 32L10 32L10 33L9 33L9 32L8 32L8 33L6 33L6 34L5 34L5 36L4 36L4 37L6 37L6 38L9 38L9 41L11 41L11 40L12 40L12 41L16 41L16 40L15 40L15 37L16 37L16 39L17 39L17 41L18 41L18 42L19 42L19 44L21 44L21 43L22 43L22 41L18 41L18 39L17 39L17 37L18 37L18 38L19 38L19 40L21 40L21 39L23 39L23 38L24 38L24 37L25 37L25 39L27 39L27 40L28 40L28 41L27 41L27 44L28 44L28 45L29 45L29 46L28 46L28 47L27 47L27 45L24 45L24 46L26 46L26 47L25 47L25 48L28 48L28 47L29 47L29 48L30 48L30 47L29 47L29 46L30 46L30 43L29 43L29 42L30 42L30 41L31 41L31 40L30 40L30 39L29 39L29 38L30 38L30 35L33 35L33 34L34 34L34 38L33 38L33 39L34 39L34 38L35 38L35 40L36 40L36 39L37 39L37 42L39 42L39 40L41 40L41 39L42 39L42 40L44 40L44 39L45 39L45 37L46 37L46 36L48 36L48 34L47 34L47 33L48 33L48 30L47 30L47 29L46 29L46 28L47 28L47 27L48 27L48 26L47 26L47 25L48 25L48 22L47 22L47 23L46 23L46 24L45 24L45 25L46 25L46 26L45 26L45 27L42 27L42 28L45 28L45 29L43 29L43 31L42 31L42 30L41 30L41 31L39 31L39 29L38 29L38 30L37 30L37 29L36 29L36 31L34 31L34 30L35 30L35 29L34 29L34 28L35 28L35 27L36 27L36 26L35 26L35 25L33 25L33 24L34 24L34 23L35 23L35 24L36 24L36 21L34 21L34 20L36 20L36 18L37 18L37 17L36 17L36 16L38 16L38 14L42 14L42 15L43 15L43 16L44 16L44 17L43 17L43 18L42 18L42 16L41 16L41 15L39 15L39 16L41 16L41 17L38 17L38 18L39 18L39 21L38 21L38 20L37 20L37 21L38 21L38 22L37 22L37 23L38 23L38 25L37 25L37 26L39 26L39 27L37 27L37 28L40 28L40 29L41 29L41 28L40 28L40 26L39 26L39 23L40 23L40 22L42 22L42 21L44 21L44 22L46 22L46 20L47 20L47 21L48 21L48 20L47 20L47 19L48 19L48 18L47 18L47 17L48 17L48 14L47 14L47 13L46 13L46 12L48 12L48 10L47 10L47 11L46 11L46 12L42 12L42 10L41 10L41 9L40 9L40 8L39 8L39 7L38 7L38 8L37 8L37 7L36 7L36 6L35 6L35 4L33 4L33 3L34 3L34 2L33 2L33 3L31 3L31 5L30 5L30 2L29 2L29 3L28 3L28 2L26 2L26 3L25 3L25 2L24 2L24 3L23 3L23 2L22 2L22 1ZM19 2L19 3L20 3L20 2ZM10 5L10 6L11 6L11 5ZM23 5L23 8L26 8L26 5ZM20 6L20 8L21 8L21 6ZM24 6L24 7L25 7L25 6ZM30 6L30 10L29 10L29 11L28 11L28 12L29 12L29 13L30 13L30 14L31 14L31 12L33 12L33 11L34 11L34 10L33 10L33 9L35 9L35 8L34 8L34 7L35 7L35 6L34 6L34 7L33 7L33 6L32 6L32 7L31 7L31 6ZM16 8L16 9L13 9L13 10L16 10L16 11L15 11L15 13L16 13L16 14L15 14L15 15L12 15L12 16L11 16L11 17L9 17L9 16L10 16L10 15L9 15L9 16L8 16L8 17L7 17L7 16L6 16L6 17L7 17L7 18L12 18L12 19L11 19L11 20L10 20L10 19L9 19L9 20L10 20L10 21L11 21L11 22L12 22L12 23L11 23L11 24L12 24L12 25L13 25L13 26L10 26L10 27L9 27L9 28L11 28L11 27L12 27L12 29L10 29L10 30L11 30L11 31L12 31L12 29L13 29L13 30L14 30L14 29L13 29L13 28L14 28L14 27L13 27L13 26L15 26L15 28L16 28L16 29L15 29L15 32L16 32L16 33L13 33L13 32L11 32L11 34L10 34L10 37L9 37L9 33L8 33L8 35L7 35L7 34L6 34L6 35L7 35L7 36L6 36L6 37L9 37L9 38L10 38L10 39L12 39L12 40L14 40L14 38L13 38L13 37L15 37L15 36L16 36L16 37L17 37L17 35L16 35L16 33L17 33L17 34L18 34L18 37L21 37L21 38L22 38L22 37L24 37L24 36L23 36L23 35L21 35L21 34L22 34L22 32L23 32L23 33L24 33L24 35L25 35L25 36L27 36L27 37L26 37L26 38L27 38L27 39L28 39L28 40L29 40L29 41L30 41L30 40L29 40L29 39L28 39L28 36L29 36L29 35L30 35L30 34L31 34L31 33L32 33L32 34L33 34L33 33L32 33L32 32L31 32L31 31L30 31L30 30L32 30L32 31L33 31L33 30L34 30L34 29L33 29L33 30L32 30L32 29L31 29L31 28L33 28L33 27L34 27L34 26L33 26L33 27L31 27L31 28L30 28L30 30L29 30L29 29L28 29L28 28L29 28L29 27L30 27L30 26L32 26L32 23L30 23L30 22L33 22L33 21L31 21L31 20L33 20L33 19L34 19L34 18L33 18L33 17L32 17L32 18L33 18L33 19L30 19L30 18L29 18L29 17L28 17L28 16L27 16L27 18L24 18L24 17L23 17L23 16L24 16L24 15L23 15L23 16L22 16L22 14L18 14L18 13L21 13L21 12L22 12L22 13L23 13L23 12L24 12L24 11L23 11L23 10L21 10L21 12L20 12L20 9L19 9L19 10L18 10L18 9L17 9L17 8ZM31 8L31 10L30 10L30 11L29 11L29 12L31 12L31 10L32 10L32 11L33 11L33 10L32 10L32 9L33 9L33 8ZM36 8L36 9L37 9L37 10L38 10L38 11L36 11L36 10L35 10L35 11L36 11L36 12L34 12L34 13L35 13L35 15L37 15L37 12L38 12L38 11L39 11L39 13L40 13L40 12L41 12L41 11L39 11L39 10L38 10L38 9L37 9L37 8ZM16 9L16 10L17 10L17 9ZM43 10L43 11L44 11L44 10ZM12 11L12 12L14 12L14 11ZM16 11L16 13L18 13L18 12L19 12L19 11ZM22 11L22 12L23 12L23 11ZM13 13L13 14L14 14L14 13ZM32 13L32 14L33 14L33 13ZM42 13L42 14L43 14L43 13ZM44 13L44 14L45 14L45 17L44 17L44 18L45 18L45 19L42 19L42 18L41 18L41 20L40 20L40 21L39 21L39 22L40 22L40 21L41 21L41 20L46 20L46 17L47 17L47 16L46 16L46 15L47 15L47 14L46 14L46 13ZM1 14L1 15L2 15L2 14ZM3 15L3 16L2 16L2 17L3 17L3 16L4 16L4 15ZM15 15L15 16L12 16L12 17L16 17L16 18L15 18L15 20L16 20L16 22L15 22L15 21L12 21L12 22L14 22L14 23L13 23L13 25L16 25L16 27L18 27L18 28L17 28L17 29L16 29L16 30L17 30L17 31L16 31L16 32L17 32L17 33L18 33L18 34L21 34L21 33L18 33L18 30L19 30L19 31L20 31L20 32L22 32L22 31L27 31L27 32L28 32L28 33L29 33L29 34L27 34L27 33L26 33L26 32L24 32L24 33L25 33L25 35L27 35L27 36L28 36L28 35L29 35L29 34L30 34L30 33L31 33L31 32L30 32L30 31L29 31L29 30L28 30L28 31L27 31L27 28L28 28L28 27L29 27L29 26L30 26L30 25L31 25L31 24L30 24L30 23L29 23L29 22L30 22L30 21L29 21L29 20L30 20L30 19L29 19L29 18L28 18L28 19L24 19L24 18L22 18L22 20L21 20L21 19L17 19L17 17L18 17L18 18L19 18L19 17L18 17L18 16L17 16L17 17L16 17L16 15ZM20 15L20 18L21 18L21 17L22 17L22 16L21 16L21 15ZM12 19L12 20L14 20L14 19ZM23 19L23 20L22 20L22 21L21 21L21 20L18 20L18 21L17 21L17 22L18 22L18 23L19 23L19 24L18 24L18 25L17 25L17 23L14 23L14 24L16 24L16 25L17 25L17 26L18 26L18 27L19 27L19 26L18 26L18 25L21 25L21 26L22 26L22 28L18 28L18 29L17 29L17 30L18 30L18 29L21 29L21 30L20 30L20 31L21 31L21 30L22 30L22 28L23 28L23 29L24 29L24 30L25 30L25 29L24 29L24 28L27 28L27 27L28 27L28 26L29 26L29 25L30 25L30 24L29 24L29 23L28 23L28 24L27 24L27 22L29 22L29 21L28 21L28 20L29 20L29 19L28 19L28 20L27 20L27 22L22 22L22 21L23 21L23 20L24 20L24 21L26 21L26 20L24 20L24 19ZM18 21L18 22L21 22L21 21ZM0 23L0 24L1 24L1 23ZM5 23L5 26L8 26L8 23ZM20 23L20 24L22 24L22 23ZM23 23L23 26L26 26L26 23ZM41 23L41 26L44 26L44 23ZM3 24L3 25L4 25L4 24ZM6 24L6 25L7 25L7 24ZM24 24L24 25L25 25L25 24ZM28 24L28 25L29 25L29 24ZM42 24L42 25L43 25L43 24ZM46 24L46 25L47 25L47 24ZM23 27L23 28L24 28L24 27ZM45 27L45 28L46 28L46 27ZM6 28L6 29L7 29L7 28ZM45 29L45 32L42 32L42 31L41 31L41 33L45 33L45 34L44 34L44 35L45 35L45 36L43 36L43 37L40 37L40 36L42 36L42 35L43 35L43 34L42 34L42 35L40 35L40 32L38 32L38 31L36 31L36 32L34 32L34 33L35 33L35 34L36 34L36 33L37 33L37 32L38 32L38 33L39 33L39 34L37 34L37 35L36 35L36 36L35 36L35 37L36 37L36 38L37 38L37 37L40 37L40 38L38 38L38 39L41 39L41 38L42 38L42 39L43 39L43 37L45 37L45 36L46 36L46 33L47 33L47 32L46 32L46 29ZM28 31L28 32L29 32L29 33L30 33L30 32L29 32L29 31ZM45 32L45 33L46 33L46 32ZM1 34L1 35L2 35L2 34ZM11 34L11 36L14 36L14 35L12 35L12 34ZM19 35L19 36L21 36L21 35ZM10 37L10 38L12 38L12 37ZM45 40L45 41L46 41L46 40ZM23 41L23 44L26 44L26 41ZM41 41L41 44L44 44L44 41ZM24 42L24 43L25 43L25 42ZM42 42L42 43L43 43L43 42ZM17 43L17 45L16 45L16 46L17 46L17 45L18 45L18 43ZM28 43L28 44L29 44L29 43ZM37 44L37 45L36 45L36 46L35 46L35 47L36 47L36 46L37 46L37 45L38 45L38 44ZM41 45L41 46L42 46L42 45ZM9 46L9 47L10 47L10 46ZM45 47L45 48L46 48L46 49L49 49L49 47L48 47L48 48L46 48L46 47ZM0 0L0 7L7 7L7 0ZM1 1L1 6L6 6L6 1ZM2 2L2 5L5 5L5 2ZM49 0L42 0L42 7L49 7ZM48 1L43 1L43 6L48 6ZM47 2L44 2L44 5L47 5ZM0 49L7 49L7 42L0 42ZM1 48L6 48L6 43L1 43ZM2 47L5 47L5 44L2 44Z" fill="#000000"/></g></g></svg>
