<?xml version="1.0" encoding="UTF-8"?>
<svg xmlns="http://www.w3.org/2000/svg" version="1.1" width="300" height="300" viewBox="0 0 300 300"><rect x="0" y="0" width="300" height="300" fill="#ffffff"/><g transform="scale(5.263)"><g transform="translate(4,4)"><path fill-rule="evenodd" d="M9 0L9 1L8 1L8 2L10 2L10 3L11 3L11 4L10 4L10 5L8 5L8 7L9 7L9 6L10 6L10 7L11 7L11 8L10 8L10 9L11 9L11 10L9 10L9 8L6 8L6 9L5 9L5 8L0 8L0 9L2 9L2 11L4 11L4 13L3 13L3 12L2 12L2 13L3 13L3 14L4 14L4 13L5 13L5 14L6 14L6 15L7 15L7 16L5 16L5 15L2 15L2 14L0 14L0 18L2 18L2 19L1 19L1 20L3 20L3 22L2 22L2 21L1 21L1 22L0 22L0 26L2 26L2 27L4 27L4 28L5 28L5 29L3 29L3 28L1 28L1 27L0 27L0 28L1 28L1 30L0 30L0 32L1 32L1 33L0 33L0 34L3 34L3 33L4 33L4 34L5 34L5 36L4 36L4 37L5 37L5 36L6 36L6 37L7 37L7 38L5 38L5 39L8 39L8 40L6 40L6 41L8 41L8 43L10 43L10 42L9 42L9 41L8 41L8 40L10 40L10 38L12 38L12 37L13 37L13 40L14 40L14 37L13 37L13 36L14 36L14 35L12 35L12 33L13 33L13 34L15 34L15 36L16 36L16 37L15 37L15 38L16 38L16 39L15 39L15 40L16 40L16 41L12 41L12 39L11 39L11 41L12 41L12 44L8 44L8 49L9 49L9 45L10 45L10 47L12 47L12 48L11 48L11 49L12 49L12 48L13 48L13 47L14 47L14 46L13 46L13 45L15 45L15 47L16 47L16 45L17 45L17 48L16 48L16 49L17 49L17 48L18 48L18 49L22 49L22 48L21 48L21 47L20 47L20 46L18 46L18 45L22 45L22 46L24 46L24 49L28 49L28 48L29 48L29 49L30 49L30 48L31 48L31 49L32 49L32 48L31 48L31 47L30 47L30 46L32 46L32 45L31 45L31 44L34 44L34 42L33 42L33 43L30 43L30 42L32 42L32 41L30 41L30 40L31 40L31 39L30 39L30 38L31 38L31 36L33 36L33 38L32 38L32 40L33 40L33 38L34 38L34 39L35 39L35 40L34 40L34 41L35 41L35 42L36 42L36 44L35 44L35 46L34 46L34 45L33 45L33 46L34 46L34 47L33 47L33 48L34 48L34 49L35 49L35 48L36 48L36 49L37 49L37 48L36 48L36 47L38 47L38 45L40 45L40 46L39 46L39 47L40 47L40 46L41 46L41 47L42 47L42 48L39 48L39 49L42 49L42 48L43 48L43 46L45 46L45 48L46 48L46 49L49 49L49 47L48 47L48 48L46 48L46 45L47 45L47 46L48 46L48 45L47 45L47 44L49 44L49 42L48 42L48 41L49 41L49 40L48 40L48 39L49 39L49 38L48 38L48 37L49 37L49 34L48 34L48 33L49 33L49 30L48 30L48 29L49 29L49 26L48 26L48 25L49 25L49 22L48 22L48 21L47 21L47 20L49 20L49 18L48 18L48 17L49 17L49 14L48 14L48 13L49 13L49 10L48 10L48 8L47 8L47 10L46 10L46 8L45 8L45 9L44 9L44 8L43 8L43 9L42 9L42 8L41 8L41 6L40 6L40 7L39 7L39 5L38 5L38 8L36 8L36 9L37 9L37 10L36 10L36 12L34 12L34 13L35 13L35 15L36 15L36 16L34 16L34 15L33 15L33 17L35 17L35 18L36 18L36 20L34 20L34 21L36 21L36 24L35 24L35 26L36 26L36 25L37 25L37 27L35 27L35 28L34 28L34 29L33 29L33 30L32 30L32 29L31 29L31 28L33 28L33 27L34 27L34 26L33 26L33 25L32 25L32 24L31 24L31 23L30 23L30 22L33 22L33 21L31 21L31 20L33 20L33 19L34 19L34 18L33 18L33 19L30 19L30 18L32 18L32 14L33 14L33 13L32 13L32 14L31 14L31 12L33 12L33 11L34 11L34 10L33 10L33 9L34 9L34 7L35 7L35 6L36 6L36 7L37 7L37 4L38 4L38 3L36 3L36 4L35 4L35 2L36 2L36 1L34 1L34 0L32 0L32 1L31 1L31 0L30 0L30 1L29 1L29 0L27 0L27 1L24 1L24 2L23 2L23 1L22 1L22 0L21 0L21 1L20 1L20 0L18 0L18 2L20 2L20 3L18 3L18 4L16 4L16 0L13 0L13 1L12 1L12 0L11 0L11 1L12 1L12 2L13 2L13 3L11 3L11 2L10 2L10 0ZM40 0L40 1L37 1L37 2L39 2L39 4L40 4L40 3L41 3L41 0ZM13 1L13 2L14 2L14 3L13 3L13 4L12 4L12 5L13 5L13 7L14 7L14 6L15 6L15 8L11 8L11 9L16 9L16 10L15 10L15 11L16 11L16 14L17 14L17 13L18 13L18 14L19 14L19 16L20 16L20 18L21 18L21 17L22 17L22 16L23 16L23 17L24 17L24 16L25 16L25 15L24 15L24 12L25 12L25 14L27 14L27 12L28 12L28 14L30 14L30 15L29 15L29 16L28 16L28 15L26 15L26 17L25 17L25 18L27 18L27 16L28 16L28 17L29 17L29 18L28 18L28 19L26 19L26 21L24 21L24 20L25 20L25 19L24 19L24 20L23 20L23 18L22 18L22 20L21 20L21 19L19 19L19 20L21 20L21 21L18 21L18 18L19 18L19 17L18 17L18 16L17 16L17 15L16 15L16 16L13 16L13 15L15 15L15 13L13 13L13 12L14 12L14 11L13 11L13 12L12 12L12 11L11 11L11 12L10 12L10 11L9 11L9 10L7 10L7 9L6 9L6 10L5 10L5 9L4 9L4 10L5 10L5 12L7 12L7 11L8 11L8 12L9 12L9 13L10 13L10 14L11 14L11 12L12 12L12 15L10 15L10 16L13 16L13 17L16 17L16 18L12 18L12 17L11 17L11 18L12 18L12 19L14 19L14 20L13 20L13 21L12 21L12 20L11 20L11 19L9 19L9 18L7 18L7 17L6 17L6 18L5 18L5 17L4 17L4 16L2 16L2 15L1 15L1 17L2 17L2 18L3 18L3 17L4 17L4 18L5 18L5 19L4 19L4 20L7 20L7 21L5 21L5 22L8 22L8 20L9 20L9 21L10 21L10 20L11 20L11 21L12 21L12 22L11 22L11 24L12 24L12 27L13 27L13 28L14 28L14 27L13 27L13 25L16 25L16 27L17 27L17 29L16 29L16 28L15 28L15 29L12 29L12 28L11 28L11 27L10 27L10 28L9 28L9 27L5 27L5 28L9 28L9 29L8 29L8 30L9 30L9 31L8 31L8 32L9 32L9 34L8 34L8 33L6 33L6 34L7 34L7 35L6 35L6 36L7 36L7 37L8 37L8 38L9 38L9 37L8 37L8 36L11 36L11 37L12 37L12 35L9 35L9 34L10 34L10 33L11 33L11 29L12 29L12 30L13 30L13 33L16 33L16 35L18 35L18 36L17 36L17 37L16 37L16 38L17 38L17 37L18 37L18 38L19 38L19 39L20 39L20 40L21 40L21 39L23 39L23 40L24 40L24 39L23 39L23 38L24 38L24 37L25 37L25 39L27 39L27 40L28 40L28 41L27 41L27 42L28 42L28 43L27 43L27 44L28 44L28 45L29 45L29 46L28 46L28 47L27 47L27 46L26 46L26 45L24 45L24 46L25 46L25 48L28 48L28 47L29 47L29 48L30 48L30 47L29 47L29 46L30 46L30 43L29 43L29 42L30 42L30 41L29 41L29 40L30 40L30 39L29 39L29 38L30 38L30 35L33 35L33 34L34 34L34 38L35 38L35 39L36 39L36 40L35 40L35 41L36 41L36 40L37 40L37 42L39 42L39 41L38 41L38 40L41 40L41 39L42 39L42 40L43 40L43 39L42 39L42 38L41 38L41 35L42 35L42 36L45 36L45 37L43 37L43 38L44 38L44 40L45 40L45 41L46 41L46 42L45 42L45 43L46 43L46 44L45 44L45 45L46 45L46 44L47 44L47 43L48 43L48 42L47 42L47 41L46 41L46 40L47 40L47 39L48 39L48 38L47 38L47 37L48 37L48 36L47 36L47 35L48 35L48 34L47 34L47 33L48 33L48 30L47 30L47 31L46 31L46 32L45 32L45 33L41 33L41 31L42 31L42 32L44 32L44 31L45 31L45 30L46 30L46 28L48 28L48 26L47 26L47 25L48 25L48 22L46 22L46 24L47 24L47 25L46 25L46 26L45 26L45 27L42 27L42 28L45 28L45 29L43 29L43 31L42 31L42 29L41 29L41 28L40 28L40 29L38 29L38 30L37 30L37 29L36 29L36 31L35 31L35 32L36 32L36 31L38 31L38 33L37 33L37 34L39 34L39 32L40 32L40 34L41 34L41 35L39 35L39 36L40 36L40 38L41 38L41 39L38 39L38 38L39 38L39 37L37 37L37 38L36 38L36 37L35 37L35 36L36 36L36 35L35 35L35 33L33 33L33 32L34 32L34 30L35 30L35 29L34 29L34 30L33 30L33 31L32 31L32 30L30 30L30 28L31 28L31 27L33 27L33 26L32 26L32 25L31 25L31 26L30 26L30 25L29 25L29 24L28 24L28 23L29 23L29 22L30 22L30 21L29 21L29 20L30 20L30 19L29 19L29 18L30 18L30 15L31 15L31 14L30 14L30 13L29 13L29 12L31 12L31 11L33 11L33 10L32 10L32 9L33 9L33 8L31 8L31 10L30 10L30 9L29 9L29 8L30 8L30 6L31 6L31 7L32 7L32 6L33 6L33 7L34 7L34 6L35 6L35 4L33 4L33 3L34 3L34 2L33 2L33 1L32 1L32 2L33 2L33 3L31 3L31 5L30 5L30 2L31 2L31 1L30 1L30 2L29 2L29 1L28 1L28 2L26 2L26 3L25 3L25 2L24 2L24 3L23 3L23 2L22 2L22 1L21 1L21 3L23 3L23 4L24 4L24 3L25 3L25 4L27 4L27 3L28 3L28 5L30 5L30 6L29 6L29 8L28 8L28 6L27 6L27 8L28 8L28 9L29 9L29 10L28 10L28 11L24 11L24 12L23 12L23 11L22 11L22 12L21 12L21 10L24 10L24 9L22 9L22 6L21 6L21 7L20 7L20 6L19 6L19 9L18 9L18 8L17 8L17 9L16 9L16 6L15 6L15 5L16 5L16 4L15 4L15 1ZM28 2L28 3L29 3L29 2ZM8 3L8 4L9 4L9 3ZM13 4L13 5L14 5L14 4ZM18 4L18 5L21 5L21 4ZM23 5L23 8L26 8L26 5ZM11 6L11 7L12 7L12 6ZM17 6L17 7L18 7L18 6ZM24 6L24 7L25 7L25 6ZM38 8L38 10L39 10L39 11L38 11L38 12L37 12L37 15L38 15L38 16L37 16L37 17L38 17L38 18L37 18L37 19L38 19L38 18L40 18L40 19L39 19L39 21L38 21L38 20L37 20L37 21L38 21L38 22L37 22L37 24L38 24L38 23L40 23L40 22L42 22L42 21L44 21L44 22L45 22L45 21L46 21L46 20L47 20L47 19L48 19L48 18L47 18L47 17L48 17L48 14L47 14L47 13L48 13L48 12L47 12L47 11L48 11L48 10L47 10L47 11L46 11L46 12L42 12L42 10L41 10L41 9L39 9L39 8ZM17 9L17 10L16 10L16 11L17 11L17 12L18 12L18 13L21 13L21 16L22 16L22 14L23 14L23 12L22 12L22 13L21 13L21 12L20 12L20 9L19 9L19 11L17 11L17 10L18 10L18 9ZM25 9L25 10L27 10L27 9ZM43 9L43 11L45 11L45 10L44 10L44 9ZM0 10L0 11L1 11L1 10ZM6 10L6 11L7 11L7 10ZM29 10L29 11L28 11L28 12L29 12L29 11L30 11L30 10ZM39 12L39 13L40 13L40 12ZM46 12L46 13L44 13L44 14L45 14L45 15L43 15L43 16L40 16L40 17L41 17L41 18L42 18L42 19L41 19L41 20L40 20L40 21L39 21L39 22L40 22L40 21L41 21L41 20L46 20L46 17L47 17L47 16L46 16L46 15L47 15L47 14L46 14L46 13L47 13L47 12ZM6 13L6 14L7 14L7 15L8 15L8 14L7 14L7 13ZM42 13L42 14L38 14L38 15L42 15L42 14L43 14L43 13ZM23 15L23 16L24 16L24 15ZM8 16L8 17L9 17L9 16ZM16 16L16 17L17 17L17 18L18 18L18 17L17 17L17 16ZM43 16L43 19L45 19L45 17L46 17L46 16ZM6 18L6 19L7 19L7 18ZM28 19L28 20L27 20L27 22L22 22L22 24L20 24L20 23L21 23L21 22L18 22L18 21L17 21L17 20L16 20L16 21L15 21L15 22L16 22L16 23L14 23L14 21L13 21L13 22L12 22L12 24L13 24L13 23L14 23L14 24L16 24L16 25L17 25L17 27L19 27L19 26L18 26L18 25L21 25L21 26L22 26L22 28L18 28L18 29L17 29L17 30L18 30L18 33L17 33L17 31L16 31L16 29L15 29L15 32L16 32L16 33L17 33L17 34L18 34L18 35L21 35L21 36L18 36L18 37L21 37L21 38L20 38L20 39L21 39L21 38L22 38L22 37L24 37L24 36L23 36L23 35L21 35L21 34L22 34L22 33L21 33L21 32L23 32L23 33L24 33L24 35L25 35L25 36L27 36L27 37L26 37L26 38L27 38L27 39L28 39L28 40L29 40L29 39L28 39L28 36L29 36L29 35L30 35L30 34L31 34L31 33L32 33L32 32L31 32L31 31L30 31L30 30L29 30L29 29L28 29L28 28L29 28L29 27L30 27L30 26L29 26L29 25L28 25L28 24L27 24L27 22L29 22L29 21L28 21L28 20L29 20L29 19ZM22 20L22 21L23 21L23 20ZM16 21L16 22L17 22L17 23L16 23L16 24L17 24L17 25L18 25L18 24L19 24L19 23L18 23L18 22L17 22L17 21ZM1 22L1 23L2 23L2 22ZM9 22L9 23L10 23L10 22ZM3 23L3 24L2 24L2 26L4 26L4 25L3 25L3 24L4 24L4 23ZM5 23L5 26L8 26L8 23ZM23 23L23 26L26 26L26 23ZM33 23L33 24L34 24L34 23ZM41 23L41 26L44 26L44 23ZM6 24L6 25L7 25L7 24ZM9 24L9 26L10 26L10 24ZM24 24L24 25L25 25L25 24ZM42 24L42 25L43 25L43 24ZM38 25L38 26L39 26L39 25ZM27 26L27 28L24 28L24 27L23 27L23 28L22 28L22 30L21 30L21 29L18 29L18 30L19 30L19 32L20 32L20 31L23 31L23 32L24 32L24 33L26 33L26 34L25 34L25 35L27 35L27 36L28 36L28 35L29 35L29 34L30 34L30 33L31 33L31 32L30 32L30 31L29 31L29 30L28 30L28 31L27 31L27 28L28 28L28 27L29 27L29 26ZM37 27L37 28L39 28L39 27ZM45 27L45 28L46 28L46 27ZM23 28L23 29L24 29L24 32L27 32L27 33L28 33L28 32L29 32L29 33L30 33L30 32L29 32L29 31L28 31L28 32L27 32L27 31L25 31L25 29L24 29L24 28ZM2 29L2 31L4 31L4 30L3 30L3 29ZM5 29L5 32L4 32L4 33L5 33L5 32L7 32L7 31L6 31L6 30L7 30L7 29ZM40 29L40 30L39 30L39 31L41 31L41 29ZM9 31L9 32L10 32L10 31ZM2 32L2 33L3 33L3 32ZM46 32L46 33L45 33L45 34L44 34L44 35L45 35L45 36L46 36L46 37L45 37L45 40L46 40L46 37L47 37L47 36L46 36L46 33L47 33L47 32ZM18 33L18 34L21 34L21 33ZM42 34L42 35L43 35L43 34ZM2 35L2 36L3 36L3 35ZM0 37L0 38L1 38L1 40L0 40L0 41L3 41L3 40L4 40L4 39L2 39L2 38L3 38L3 37ZM16 39L16 40L17 40L17 41L16 41L16 42L15 42L15 43L17 43L17 45L18 45L18 42L19 42L19 44L21 44L21 42L22 42L22 41L18 41L18 39ZM37 39L37 40L38 40L38 39ZM17 41L17 42L18 42L18 41ZM23 41L23 44L26 44L26 41ZM41 41L41 44L44 44L44 41ZM24 42L24 43L25 43L25 42ZM42 42L42 43L43 43L43 42ZM13 43L13 44L14 44L14 43ZM28 43L28 44L29 44L29 43ZM15 44L15 45L16 45L16 44ZM37 44L37 45L36 45L36 46L35 46L35 47L36 47L36 46L37 46L37 45L38 45L38 44ZM11 45L11 46L12 46L12 45ZM41 45L41 46L42 46L42 45ZM18 47L18 48L20 48L20 47ZM0 0L0 7L7 7L7 0ZM1 1L1 6L6 6L6 1ZM2 2L2 5L5 5L5 2ZM49 0L42 0L42 7L49 7ZM48 1L43 1L43 6L48 6ZM47 2L44 2L44 5L47 5ZM0 49L7 49L7 42L0 42ZM1 48L6 48L6 43L1 43ZM2 47L5 47L5 44L2 44Z" fill="#000000"/></g></g></svg>
